<?xml version="1.0" encoding="utf-8"?>
<!-- Generator: Adobe Illustrator 23.0.3, SVG Export Plug-In . SVG Version: 6.00 Build 0)  -->
<svg version="1.1" id="Layer_1" xmlns="http://www.w3.org/2000/svg" xmlns:xlink="http://www.w3.org/1999/xlink" x="0px" y="0px"
	 viewBox="0 0 1600 740" style="enable-background:new 0 0 1600 830;" xml:space="preserve">
<style type="text/css">
	.st0{fill:#F4EDD7;}
	.st1{fill:#E9E3CB;}
	.st2{fill:none;stroke:#FFFFFF;stroke-width:5;stroke-miterlimit:10;stroke-dasharray:12,12;}
	.st3{fill:#DB2026;}
	.st4{fill:none;stroke:#000000;stroke-miterlimit:10;stroke-dasharray:5,3;}
	.st5{fill:#231E20;}
	.st6{fill:#FFFFFF;}
	.st7{font-family:'Impact';}
	.st8{font-size:40.7725px;}
	.st9{font-family:'MS-Gothic';}
	.st10{font-size:28.5407px;}
	.st11{font-size:8.5404px;}
	.st12{font-size:17.6554px;}
	.st13{fill:#7E7664;}
	.st14{fill:#CA202B;}
	.st15{fill:#E90006;}
	.st16{fill:#FBB03B;}
	.st17{fill:#A74E2E;}
	.st18{fill:#E39E2C;}
	.st19{fill:#E7C656;}
	.st20{font-size:46.1187px;}
	.st21{letter-spacing:1.72;}
	.st22{font-size:44.73px;}
	.st23{font-size:47.8711px;}
	.st24{letter-spacing:1.75;}
	.st25{font-size:45.2608px;}
	.st26{fill:#AEAA9E;}
	.st27{fill:#F5EBD5;}
	.st28{fill:#D87C00;stroke:#000000;stroke-miterlimit:10;}
	.st29{fill:#C66000;}
	.st30{fill:#C14F00;stroke:#000000;stroke-miterlimit:10;}
	.st31{fill:#A83500;}
	.st32{fill:none;stroke:#000000;stroke-miterlimit:10;}
	.st33{opacity:0.38;}
	.st34{fill:#FF1900;}
	.st35{fill:#F73D23;stroke:#603813;stroke-miterlimit:10;}
	.st36{fill:#4EAE26;stroke:#603813;stroke-miterlimit:10;}
	.st37{fill:#FCB93E;stroke:#603813;stroke-miterlimit:10;}
	.st38{fill:#E6A958;stroke:#603813;stroke-miterlimit:10;}
	.st39{opacity:0.88;fill:#FFFFFF;}
	.st40{fill:none;stroke:#000000;stroke-width:2;stroke-miterlimit:10;}
	.st41{fill:#621D0C;}
</style>
<rect id="container" x="0" y="0" class="st0" width="1598" height="740"/>
<path id="road_1_" class="st1" d="M238.42,402.36c0,0,7.89,78.39,40.55,74.68c88.34,0,183.05-75.03,274.53-101.93
	c52.35-15.4,97.73-15.8,121.81-16.43c42.21-1.11,78.11,2.62,105.16,6.91c24.19,4.86,59.8,13.8,100.43,31.24
	c46.62,20,51.97,30.64,89.84,47.59c25.48,11.41,88.11,39.43,165.81,29.9c57.72-7.08,99.67-31.93,122.4-45.71
	c29.86-18.1,51.86-37.52,66.51-52.14c3.02-2.3,18.41-14.53,37.71-9.85c11.21,2.72,19.37,8.49,19.37,8.49s33.3,8.15,39.41,40.77
	c-9.24,11.67-23.29,27.75-42.65,44.36c-53,45.43-107.14,61.53-140.82,71.17c-29.8,8.52-86.85,20.78-157.63,15.14
	c-36.6-2.91-77.24-10.91-120.98-27.37c-26.06-9.81-21.2-8.84-95.87-38.45c-78.11-30.98-102.22-38.12-121.59-43.09
	c-23.14-5.94-45.92-11.68-77.26-14.31c-21.5-1.81-58.63-4.94-99.42,4.8c-25.99,6.21-33.17,12.79-98.41,48.31
	c-65.41,35.62-98.62,53.54-123.12,59.06c-31.12,7-89.66,25.32-122.32-12.23c-27.18-31.26-39.37-97.91-39.37-97.91l26.46-10.88
	L238.42,402.36z"/>
<path id="whiteLine" class="st2" d="M208.98,413.84c2.04,7.47,0.68,16.99,3.4,23.78c8.15,16.31,8.15,33.98,19.03,50.29
	c5.44,8.15,12.23,16.31,23.1,17.67c31.26,2.72,61.16,2.72,91.06-6.8c63.88-32.62,127.75-66.6,194.35-93.78
	c14.95-5.44,28.54-10.87,44.85-12.23c10.87,0,21.75,0,32.62-1.36c24.46-4.08,48.93-8.15,73.39-8.15
	c19.03,1.36,36.7,5.44,54.36,12.23c5.44,2.72,10.87,5.44,16.31,8.15c33.98,14.95,69.31,27.18,103.29,40.77
	c29.9,12.23,58.44,24.46,88.34,33.98c5.44,2.72,10.87,5.44,16.31,8.15c10.87,4.08,20.39,6.8,31.26,9.51
	c25.82,6.8,51.65,9.51,77.47,13.59c21.75,2.72,44.85,4.08,66.6,2.72c12.23-1.36,23.1-2.72,33.98-6.8
	c46.21-21.75,88.34-46.21,133.19-70.67c14.95-8.15,29.9-16.31,44.85-25.82c5.44-4.08,10.87-6.8,16.31-10.87
	c1.36-1.36,5.44-1.36,6.8-2.72c5.44-4.08,12.23-6.8,16.92-10.2c-0.52,0.09-1.02,0.03-1.52,0.16c0.57,0.05,0.75-0.02,1.52-0.16
	c-22.56-4.02-44.98-8.8-67.37-13.67"/>
<g id="Board">
	<polygon id="board" class="st3" points="64.24,225.61 130.83,443.06 353.72,353.36 329.26,179.4 	"/>
	<polygon id="border" class="st4" points="77.83,236.48 133.55,421.32 344.21,341.13 321.1,190.27 	"/>
	<polygon id="shadow" class="st5" points="66.95,229.69 132.19,443.06 351,353.36 351,356.08 129.47,447.14 62.88,229.69 	"/>
	<polygon id="howContainer" class="st5" points="170.92,235.38 180.44,258.91 242.96,243.22 237.52,218.13 	"/>
	<g id="TextOnBoard">
		<text transform="matrix(1.5776 -0.4792 0.2906 0.9568 112.492 334.0848)" class="st6 st7 st8">TOMATO</text>
		<text transform="matrix(1.8463 -0.7 0.5362 1.2418 140.1196 410.1868)" class="st9 st10">WORKS</text>
		<g>
			<g>
				<path class="st6" d="M160.62,333.79c2-0.83,4.4-1.71,7.04-2.51c4.81-1.46,8.47-1.82,11.14-1.22c2.71,0.57,4.63,1.98,5.4,4.52
					c0.79,2.59,0.09,5.08-1.88,7.27c-2.01,2.21-5.79,4.24-10.82,5.77c-2.41,0.73-4.42,1.28-6.16,1.68L160.62,333.79z M168.24,346.71
					c0.88-0.17,2.13-0.54,3.41-0.93c7.2-2.18,10.34-5.79,9.04-10.05c-1.09-3.74-5.28-5.03-12.37-2.88c-1.74,0.53-3.01,1.02-3.87,1.4
					L168.24,346.71z"/>
				<path class="st6" d="M191.24,335.69c0.91,2.76,4.17,3.02,7.58,1.99c2.43-0.74,3.83-1.46,4.99-2.15l1.04,1.28
					c-1.09,0.69-3.04,1.71-6.01,2.62c-5.73,1.74-9.89,0.47-10.92-2.92c-1.04-3.43,1.47-7.12,6.92-8.78c6.09-1.85,8.66,0.9,9.3,2.99
					c0.13,0.43,0.18,0.75,0.18,1L191.24,335.69z M200.73,331.19c-0.36-1.31-1.89-3.07-5.69-1.91c-3.46,1.05-4.36,3.4-4.2,4.92
					L200.73,331.19z"/>
				<path class="st6" d="M205.23,319.07l3.38-1.03l5.05,16.62l-3.38,1.03L205.23,319.07z"/>
				<path class="st6" d="M218.77,317.24c0.22,0.7-0.42,1.53-1.77,1.94c-1.23,0.37-2.23,0.04-2.44-0.66
					c-0.22-0.71,0.48-1.54,1.72-1.92C217.55,316.21,218.54,316.52,218.77,317.24z M219.39,332.91l-3.44-11.32l3.38-1.03l3.44,11.32
					L219.39,332.91z"/>
				<path class="st6" d="M226.29,318.45l5.59,5.23c0.95,0.86,1.71,1.64,2.42,2.46l0.1-0.03c0.14-1.07,0.39-2.17,0.67-3.4l1.72-7.46
					l3.55-1.08l-3.9,13.55l-3.24,0.98l-10.55-9.16L226.29,318.45z"/>
				<path class="st6" d="M247.27,318.66c0.91,2.76,4.17,3.02,7.58,1.99c2.43-0.74,3.83-1.45,4.99-2.15l1.04,1.28
					c-1.09,0.69-3.04,1.71-6.01,2.61c-5.73,1.74-9.89,0.47-10.92-2.92c-1.04-3.43,1.47-7.12,6.92-8.78c6.09-1.85,8.66,0.9,9.3,2.99
					c0.13,0.43,0.18,0.75,0.18,1L247.27,318.66z M256.76,314.16c-0.36-1.31-1.89-3.07-5.69-1.91c-3.46,1.05-4.36,3.4-4.2,4.92
					L256.76,314.16z"/>
				<path class="st6" d="M263.94,310.85c-0.41-1.34-0.81-2.46-1.23-3.48l2.97-0.9l0.8,2.18l0.12-0.04c0.41-1.78,2.18-3.37,4.44-4.06
					c0.37-0.11,0.64-0.18,0.96-0.23l0.59,1.94c-0.36,0.06-0.71,0.15-1.17,0.29c-2.39,0.73-3.75,2.33-3.74,4.01
					c0,0.32,0.05,0.67,0.16,1l1.84,6.05l-3.38,1.03L263.94,310.85z"/>
				<path class="st6" d="M276.72,303.12l6.11,5.45c0.67,0.61,1.39,1.36,1.9,1.94l0.09-0.03c0.13-0.77,0.28-1.76,0.48-2.72l1.67-7.77
					l3.6-1.09l-2.66,9.61c-1.23,4.63-2.29,7.11-4.23,9.04c-1.41,1.39-2.96,2.24-3.76,2.59l-1.37-1.46c0.8-0.42,1.81-1.08,2.67-1.91
					c0.78-0.73,1.67-1.87,2.14-3.16c0.11-0.27,0.15-0.45,0.11-0.58c-0.04-0.12-0.14-0.26-0.4-0.46l-10.06-8.35L276.72,303.12z"/>
			</g>
		</g>
		<text transform="matrix(1.5776 -0.4792 0.2906 0.9568 309.3259 246.671)" class="st6 st7 st11">TM</text>
		<text transform="matrix(1.5776 -0.4792 0.2906 0.9568 185.3032 251.7633)" class="st6 st7 st12">How</text>
	</g>
</g>
<g id="bike">
	<path d="M1445.06,293.56c0,0-10.87-1.36-13.59-2.72c-2.72-1.36,1.36-1.36-1.36-5.44s-6.8-1.36-10.87-1.36s-5.44,2.72-5.44,6.8
		c0,4.08,5.44,5.44,5.44,5.44v5.44l2.72,5.44c0,0-9.51-2.72-12.23-2.72c-2.72,0-17.67-4.08-20.39-4.08c-2.72,0-4.08-5.44-5.44-8.15
		s1.36-4.08,2.72-5.44c1.36-1.36-2.04,2.04,0,0c2.04-2.04,0-10.87,0-13.59s-3.4-6.12-6.12-7.47c-2.72-1.36-4.08,1.36-9.51,1.36
		c-5.6,0-6.8,9.51-6.8,9.51l6.12,11.55c-4.08,1.36-1.36,14.95-1.36,14.95l6.8,31.26l-20.39,6.8l-16.31-54.36l-40.77,13.59
		l2.72,16.31l8.15,35.34h24.46l-6.8,3.67v5.84l5.44,2.72l5.44,9.51l-4.08,6.8l8.15,1.36v16.31l5.44,1.36v-19.03l14.95-8.15
		c0,0-5.44,6.8-8.15,10.87c-2.72,4.08-6.8,12.23-2.72,23.1c4.08,10.87,19.03,17.67,31.26,12.23c12.23-5.44,13.59-20.39,13.59-20.39
		l33.98-12.23l1.36-5.44l16.31-8.15l19.03-16.31c0,0,10.87,10.87,21.75,6.8s9.51-2.72,14.95-13.59c5.44-10.87-1.36-16.31-4.08-21.75
		c-2.72-5.44-2.72-4.08-9.51-8.15s-24.46,2.72-24.46,2.72l-2.72-10.87v-5.44h2.72l-16.31-12.23H1445.06"/>
	<path class="st13" d="M1485.75,335.69l1.45-6.8c0,0,0-2.72,1.36-1.36c1.36,1.36-0.53,8.79-0.53,8.79l1.97,1.48l8.07-3.48l1.36,4.08
		l-8.15,1.71v2.37l8.15,1.36l-1.36,2.72l-7.86-2.37l-1.43,1.31l3.86,7.85l-2.72,1.36l-2.72-6.8h-2.72l-1.36,6.8h-4.08l2.72-8.15
		l-1.36-1.36l-6.8,4.08l-1.36-2.72l6.8-4.08v-1.36l-8.15-1.36l1.36-2.72l7.32,1.91l0.92-1.33l-5.52-6.01L1485.75,335.69z"/>
	<path class="st14" d="M1489.91,318.03c0,0,0,5.44-2.72,4.08c-2.72-1.36-9.51,5.44-9.51,5.44l8.15,8.15l-4.08,4.08l-16.31-14.95
		c0,0,1.36,14.95,0,19.03c-1.36,4.08-5.44,13.59-9.51,16.31c-4.08,2.72-8.15,4.08-10.87,4.08c-2.72,0-10.87,1.36-17.67,5.44
		s-12.23,2.72-12.23,2.72s16.31-9.51,28.54-12.23c12.23-2.72,12.23-5.44,13.59-6.8c1.36-1.36,4.08-9.51,2.72-13.59
		c-1.36-4.08-6.8-4.08-6.8-6.8s-2.72-8.15-1.36-9.51c1.36-1.36-5.44-8.15-4.08-10.87c1.36-2.72,4.08-9.51,4.08-9.51l-21.75-5.44
		l5.18-6.91c13.85,2.83,13.85,1.47,13.85,1.47l-2.72-2.72l20.39,16.31l-2.72,1.36l1.36,4.08v10.87c0,0,12.23-5.44,14.95-5.44
		C1483.12,316.67,1488.56,315.31,1489.91,318.03z"/>
	<path class="st14" d="M1409.73,369.67c0,0,1.36,4.08-12.23,1.36c-13.59-2.72-25.82-4.08-25.82-4.08l-42.23-5.15l-2.62-7.08
		l13.59-5.44c0,0,16.31-2.72,19.03-2.72s9.51-1.36,19.03,0c9.51,1.36,32.62,0,32.62,0s0,8.15-8.15,12.23
		c-8.15,4.08-13.59,5.44-13.59,5.44s14.95,2.72,17.67,4.08C1409.73,369.67,1409.73,369.67,1409.73,369.67z"/>
	<path class="st14" d="M1370.31,288.13c0,0-4.08-5.44-5.44-6.8c-1.36-1.36-2.72-6.8-1.36-9.51c1.36-2.72,4.08-4.08,5.44-5.44
		c1.36-1.36,6.8-2.72,8.15-2.72c0.64,0,1.58,0.3,2.54,0.73c1.09,0.49,2.22,1.15,3,1.74c1.46,1.11-0.11,0.25-0.11,0.25
		s0,1.36-1.36,4.08c-1.36,2.72-1.36,1.36-1.36,4.08c0,2.72,1.36,4.08,2.72,6.8c1.36,2.72-10.87,6.8-10.87,6.8H1370.31z"/>
	<polygon class="st15" points="1309.16,352 1296.92,300.36 1339.06,286.77 1355.36,341.13 	"/>
	<path class="st16" d="M1306.82,312.16c0,0,7.5-3.68,14.99-5.52c7.5-1.84,14.99-1.84,14.99-1.84s3.75,5.52,1.87,7.36
		c-1.87,1.84-7.5,1.84-7.5,1.84s5.62,18.39,5.62,20.23c0,1.84-13.12,5.52-14.99,3.68c-1.87-1.84-5.62-20.23-5.62-20.23
		s-5.62,3.68-7.5,1.84c-1.87-1.84-1.78-7.01-1.78-7.01L1306.82,312.16"/>
</g>
<g id="building">
	<polygon id="side" class="st17" points="413.52,447.14 452.93,466.17 439.34,342.49 397.21,337.05 	"/>
	<polygon id="front" class="st18" points="452.93,466.17 488.27,426.75 495.07,305.79 439.34,342.49 	"/>
	<polygon id="roof" class="st19" points="439.34,342.49 495.07,305.79 447.5,303.08 397.21,337.05 	"/>
	<polyline id="door" class="st17" points="470.6,447.14 470.55,446.52 469.24,430.83 478.76,422.67 478.76,437.36 	"/>
	<g id="windows">
		<polyline class="st17" points="459.73,411.8 459.73,422.67 467.88,417.24 467.88,406.37 459.73,411.8 		"/>
		<polyline class="st17" points="457.01,392.78 457.01,403.65 465.17,398.21 465.17,387.34 457.01,392.78 		"/>
		<polyline class="st17" points="476.04,399.57 476.04,410.44 484.19,405.01 484.19,394.13 476.04,399.57 		"/>
		<polyline class="st17" points="476.04,379.18 476.04,390.06 484.19,384.62 484.19,373.75 476.04,379.18 		"/>
		<polyline class="st17" points="455.65,373.75 455.65,384.62 463.81,379.18 463.81,368.31 455.65,373.75 		"/>
		<polyline class="st17" points="474.68,358.8 474.68,369.67 482.83,364.23 482.83,353.36 474.68,358.8 		"/>
		<polyline class="st17" points="452.93,350.64 452.93,361.52 461.09,356.08 461.09,345.21 452.93,350.64 		"/>
		<polyline class="st17" points="474.68,337.05 474.68,347.93 482.83,342.49 482.83,331.62 474.68,337.05 		"/>
	</g>
</g>
<g id="clouds">
	<path id="cloud1" class="st6" d="M552.15,260.94c0,0,24.52,2.59,47.57,2.72c12.07,0.07,23.78,0.55,31.26-2.72
		c0,0,8.15-5.44-1.36-12.23c-2.3-1.64-6.8-2.72-6.8-4.08c2.72-4.08,1.78-13.54-5.44-17.67c-9.51-5.44-19.03-1.36-20.39,2.72
		c-1.36,4.08-1.36,10.87-1.36,10.87s-8.15-6.8-14.95-4.08c-6.8,2.72-10.87,8.15-10.87,14.95c0,0-6.8-5.44-12.23-2.72
		C552.15,251.43,549.43,258.23,552.15,260.94z"/>
	<path id="cloud2" class="st6" d="M885.12,225.61c0,0,4.08,8.15,27.18,8.15s116.88,0,122.32-2.72c5.44-2.72,10.87-14.95,0-24.46
		c-10.87-9.51-16.31-8.15-16.31-8.15s12.23-17.67-5.44-31.26c-17.67-13.59-47.57,0-42.13,24.46h-4.08c0,0-16.31-13.59-28.54-6.8
		c-12.23,6.8-17.67,25.82-17.67,25.82s-14.95-8.15-23.1-2.72C889.2,213.38,883.76,221.53,885.12,225.61z"/>
	<path id="cloud3" class="st6" d="M1192.28,194.35c0,0,8.15-16.31,17.67-14.95s13.59,9.51,13.59,9.51s17.67-6.8,19.03,4.08
		c1.36,10.87-2.72,9.51-2.72,9.51s6.8,10.87-8.15,13.59c-14.95,2.72-17.67-5.44-17.67-5.44s-6.8,6.8-20.39,5.44
		s-9.51-9.51-9.51-9.51s-2.72-4.08,0-8.15C1186.84,194.35,1192.28,194.35,1192.28,194.35z"/>
</g>
<g id="_x31_">
	<polygon class="st6" points="371.39,569.46 404.01,551.79 401.29,535.48 386.34,546.35 365.95,494.71 356.44,500.14 344.21,535.48 
		353.72,536.84 361.88,521.89 380.9,551.79 367.31,561.3 	"/>
	<polygon class="st19" points="344.21,535.48 344.21,539.56 356.44,539.56 361.88,527.32 380.9,551.79 361.88,521.89 355.08,536.84 
			"/>
	<polygon class="st19" points="367.95,562.59 365.95,565.38 371.39,573.53 404.01,555.87 404.01,551.79 371.39,569.46 	"/>
</g>
<text transform="matrix(0.5532 -0.1839 0.1839 0.5532 421.4004 537.6241)"><tspan x="0" y="0" class="st7 st20 st21">Set your</tspan><tspan x="0" y="46.14" class="st7 st20 st21">address</tspan></text>
<g id="_x32_">
	<path class="st19" d="M639.13,410.44l-2.72,2.72l6.8,13.59l10.87-2.72c0,0,4.08-1.36,5.44,1.36c1.36,2.72,0,5.44,0,5.44
		l-21.75,27.18l50.29,12.23l1.37-3.02l-47.58-10.57l21.75-27.18l3.54-5.96l-6.26-4.92l-6.14,3.05l-8.81,2.39L639.13,410.44z"/>
	<path class="st6" d="M639.13,410.44c0,0,21.75-17.67,32.62-12.23c10.87,5.44,19.91,11.17,13.59,28.54
		c-5.44,14.95-12.23,20.39-12.23,20.39l-1.36,1.36l28.54,5.44l-9.51,13.59l-48.93-10.87l21.75-27.18c0,0,2.72-5.44,0-8.15
		c-2.72-2.72-16.31,2.72-16.31,2.72L639.13,410.44z"/>
</g>
<text transform="matrix(0.5819 0.0353 -0.0353 0.5819 712.866 479.8148)"><tspan x="0" y="0" class="st7 st22 st21">Choose</tspan><tspan x="0" y="44.76" class="st7 st22 st21">your food</tspan></text>
<g id="_x33_">
	<path class="st19" d="M973.46,498.78l-2.72,1.36l-1.36,8.15c0,0,15.11,8.57,13.67,11.08c-1.44,2.51-11.35,0.99-11.35,0.99
		l-2.32,0.16l-5.44,13.59c0,0,15.81,9.18,14.02,13.43c-1.79,4.24-15.38,0.16-15.38,0.16h-4.08v10.87l6.8,2.72
		c0,0,5.6,1.36,8.15,1.36c6.8,0,14.95-2.72,14.95-2.72l-6.8-25.82l10.87-13.59L973.46,498.78z"/>
	<path class="st6" d="M972.1,506.94c0,0,14.95,8.15,14.95,10.87c0,2.72-14.95,1.36-14.95,1.36l-4.08,12.23
		c0,0,12.23,8.15,12.23,13.59s-17.67,2.72-17.67,2.72v10.87c0,0,4.08,2.72,19.03,1.36c14.95-1.36,17-2.12,17.67-5.44
		c1.36-6.8-13.59-20.39-13.59-20.39s8.15,0,14.95-8.15c6.8-8.15,8.15-14.95-2.72-20.39s-24.46-6.8-24.46-6.8L972.1,506.94z"/>
</g>
<text transform="matrix(0.568 0.0566 -0.0578 0.5801 1013.5637 574.9509)" class="st7 st23 st24">checkout</text>
<g id="_x34_">
	<path class="st19" d="M1224.12,390.83L1224.12,390.83c-0.36,0.36-0.48,0.89-0.32,1.38l10.18,29.27c0.23,0.67,0.96,1.04,1.64,0.84
		l24.66-7.4c0.72-0.21,1.47,0.2,1.66,0.92l7.42,27.19c0.2,0.75,1.01,1.16,1.74,0.9l12.72-4.63c0.53-0.19,0.87-0.69,0.87-1.25v-1.15
		c0-0.12-0.02-0.25-0.05-0.37l-16.77-58.49c-0.23-0.81-1.16-1.21-1.91-0.8l-11,5.92c-0.11,0.06-0.22,0.14-0.31,0.23l-0.72,0.72
		c-0.31,0.31-0.45,0.76-0.36,1.2l2.45,12.27c0.08,0.39-0.02,0.8-0.28,1.11l-5.62,6.75c-0.43,0.52-1.19,0.63-1.76,0.25l-22.56-15.04
		C1225.27,390.31,1224.57,390.38,1224.12,390.83z"/>
	<g>
		<path class="st6" d="M1225.3,389.88l10.04,28.88c0.23,0.67,0.96,1.04,1.64,0.84l24.6-7.38c0.74-0.22,1.51,0.23,1.68,0.98
			l6.16,27.08c0.17,0.77,0.97,1.21,1.72,0.97l13.88-4.63c0.6-0.2,0.98-0.8,0.9-1.43l-7.8-61.11c-0.11-0.86-0.99-1.38-1.8-1.07
			l-21.7,8.44c-0.66,0.26-1,0.99-0.78,1.66l4.6,13.81c0.24,0.71-0.16,1.48-0.88,1.69l-10.88,3.26c-0.75,0.22-1.53-0.24-1.68-1.01
			l-3.47-17.37c-0.16-0.82-1.04-1.29-1.81-0.97l-13.66,5.69C1225.4,388.49,1225.07,389.22,1225.3,389.88z"/>
	</g>
</g>
<text transform="matrix(0.5695 -0.1248 0.1248 0.5695 1334.0676 533.4146)"><tspan x="0" y="0" class="st7 st25 st21">We’ll deliver</tspan><tspan x="0" y="45.29" class="st7 st25 st21">to you!</tspan></text>
<g id="bike_Extra_patch">
	<polygon class="st13" points="1366.24,400.93 1360.8,403.65 1362.16,407.72 1368.96,403.65 1368.96,414.52 1371.67,414.52 
		1373.03,405.01 1378.47,413.16 1381.19,411.8 1378.47,405.01 1386.62,405.01 1387.98,403.65 	"/>
	<path class="st1" d="M1368.96,414.52v-10.87l-6.8,4.08c0,0,0,1.36,2.72,4.08C1367.6,414.52,1368.96,414.52,1368.96,414.52z"/>
	<path class="st1" d="M1373.09,405.1l-1.42,9.43c0,0,1.36,0,2.72,0c1.36,0,4.08-1.36,4.08-1.36L1373.09,405.1z"/>
	<path class="st1" d="M1381.19,411.8l-2.72-6.8h8.15c0,0-1.36,2.72-2.72,4.08C1382.55,410.44,1381.19,411.8,1381.19,411.8z"/>
	<path class="st1" d="M1360.8,403.65l5.44-2.72c0,0-4.68-1.24-6.8-2.72c0,0-1.36,0,0,2.72
		C1360.8,403.65,1360.8,403.65,1360.8,403.65z"/>
	<path class="st1" d="M1362.16,398.21"/>
	<path class="st26" d="M1360.8,385.98l27.18,1.36v16.31l-21.75-2.72c0,0-12.23-2.72-12.23-8.15
		C1354.01,387.34,1360.8,385.98,1360.8,385.98z"/>
	<path class="st0" d="M1488.74,327.8c0,0,3.89,1.1,5.25,2.46c1.36,1.36,3.85,4.18,3.85,4.18l-7.82,3.37l-1.98-1.46L1488.74,327.8z"
		/>
	<path class="st0" d="M1499.43,338.41c0,0,0,1.36,0,2.72s0,2.72,0,2.72l-8.15-1.36v-2.31L1499.43,338.41z"/>
	<polygon class="st0" points="1498.07,346.57 1492.63,353.36 1488.8,345.57 1490.28,344.22 	"/>
	<polygon class="st0" points="1483.12,354.72 1489.91,354.72 1487.22,347.98 1484.48,347.93 	"/>
	<path class="st0" d="M1479.04,354.72l2.72-8.15l-1.36-1.36l-6.74,4.05c0,0-0.05,1.39,1.31,2.75"/>
</g>
<path class="st27" d="M1413.93,308.73c0,0-23.14,0.05-21.94,2.84s-0.15,2.71,5.27,3.02s12.52-4.74,15.16-3.23
	c2.64,1.51,5.27,3.02,10.78,1.97c5.5-1.05,5.58-2.41,4.38-5.2S1413.93,308.73,1413.93,308.73z"/>
<g id="pack_1_">
	<path class="st28" d="M1080.08,498.85c0.43,0.07,0.87,0.12,1.3,0.17l62.65-22.66c0,0-4.08-38.05-13.59-50.29
		s-14.95-27.18-16.31-31.26c-1.36-4.08-1.36-5.44-1.36-5.44l10.87-1.36l-12.23-12.23l-55.72,1.36c0,0,0,13.59,1.36,19.03
		c1.36,5.44,4.08,24.46,6.8,28.54s12.23,28.54,12.23,33.98C1076.07,463.71,1079.55,494.21,1080.08,498.85z"/>
	<path class="st29" d="M1080.14,487.25c0,0,12.92-8.85,18.36-10.21c5.44-1.36,23.1-2.72,28.54-4.08c5.44-1.36,13.59-4.08,13.59-4.08
		l-1.36-4.08c0,0-10.77,4.75-17.67,4.08c-2.95-0.29-6.44,1.58-9.51,1.36c-4.29-0.31-1.36,0-12.23,1.36
		c-7.26,0.91-20.25,10.81-20.25,10.81L1080.14,487.25z"/>
	<path class="st29" d="M1068.87,432.42c0,0,17.39-0.23,24.19-1.59c6.8-1.36,30.93-12.35,30.93-12.35l-5.15-7.87
		c0,0-16.27,7.99-23.06,9.35c-6.8,1.36-29.9,2.72-29.9,2.72l-0.98,1.53L1068.87,432.42z"/>
	<path class="st29" d="M1063.06,418.84c0,0,21.84,1.11,31.36-1.61c9.51-2.72,24.46-9.51,24.46-9.51l-1.36-2.72
		c0,0-17.67,9.51-27.18,10.87c-9.51,1.36-27.76,1.06-27.76,1.06L1063.06,418.84z"/>
	<polygon class="st29" points="1112.09,391.42 1113.45,398.21 1068.6,402.29 1057.73,391.42 1056.37,379.18 1068.6,395.49 
		1112.09,390.06 	"/>
	<path class="st30" d="M1078.85,498.62l-22.06-30.08l-1.34-53.76v-37.63c0,0-1.34,1.34-1.34,5.38c0,4.03-8.06,32.26-10.75,40.32
		c-2.69,8.06-5.38,13.44-8.06,24.19c-2.69,10.75,0,26.88,0,26.88l43.32,24.66C1078.69,498.6,1078.77,498.61,1078.85,498.62z"/>
	<path class="st31" d="M1048.21,471.6c0,0-6.8-5.44-6.8-13.59c0-8.15,4.08-16.31,5.44-24.46c1.36-8.15,8.15-42.13,8.15-42.13v-6.8
		l-10.24,35.19l-7.43,21.89c0,0-3.25,17.96-2.72,20.39c0.53,2.43,1.36,12.23,1.36,12.23L1048.21,471.6z"/>
	<line class="st32" x1="1035.2" y1="472.96" x2="1057.05" y2="468.2"/>
	<path class="st32" d="M1035.2,473.33"/>
	<path class="st30" d="M1079.88,498.81l-1.25-7.5c0,0-2.72-27.18-2.72-29.9s-2.72-13.59-4.08-16.31c-1.36-2.72-8.15-17.67-9.51-23.1
		c-1.36-5.44-3.69-16.99-3.69-16.99l-3.11-15.63l0.84,78.94l23.06,30.41C1079.58,498.76,1079.73,498.79,1079.88,498.81z"/>
	<polygon class="st32" points="1112.77,389.38 1069.28,393.45 1055.69,377.15 1111.41,375.79 1123.64,388.02 	"/>
	<path class="st33" d="M1086.65,438.56c0,0,7.5-3.68,14.99-5.52c7.5-1.84,14.99-1.84,14.99-1.84s3.75,5.52,1.87,7.36
		c-1.87,1.84-7.5,1.84-7.5,1.84s5.62,18.39,5.62,20.23c0,1.84-13.12,5.52-14.99,3.68c-1.87-1.84-5.62-20.23-5.62-20.23
		s-5.62,3.68-7.5,1.84c-1.87-1.84-1.78-7.01-1.78-7.01L1086.65,438.56"/>
	<g id="red_fashion">
		<polygon class="st34" points="1025.79,431.51 1035.3,424.71 1023.07,426.07 		"/>
		<polygon class="st34" points="1022.39,417.24 1033.26,417.24 1023.75,411.8 		"/>
		<polygon class="st34" points="1030.54,405.01 1038.7,413.16 1034.62,402.29 		"/>
	</g>
</g>
<g id="taco">
	<path class="st35" d="M739.58,337.63c0,0,1.34-6.14,4.06-7.95s7.93-0.99,7.93-0.99l-0.68,9.14L739.58,337.63z"/>
	<path class="st36" d="M749.98,334.21c0,0,0.91-8.16,5.44-9.06c4.53-0.91,7.25,1.81,7.25,1.81s0.91-5.44,6.34-5.44
		c5.44,0,9.06,4.53,9.06,4.53s2.72-3.62,8.16-2.72c5.44,0.91,7.25,7.25,7.25,7.25s3.62-3.62,8.16-0.91
		c4.53,2.72,5.44,6.34,5.44,6.34s6.34,0,8.16,3.62c1.81,3.62,0,9.97,0,9.97L749.98,334.21z"/>
	<path class="st37" d="M728.23,362.3c0,0-5.44-3.62-1.81-7.25c0,0-1.81-3.62-0.91-5.44s2.72-3.62,2.72-3.62s0-3.62,2.72-4.53
		c2.72-0.91,4.53,0.91,4.53,0.91s1.81-3.62,3.62-4.53c1.81-0.91,4.53-0.91,4.53-0.91s0.91-1.81,3.62-2.72
		c2.72-0.91,7.25,0.91,7.25,0.91l1.81,0.91l0.91,0.91l-12.69,14.5l-4.53,12.69l-2.72,3.62h-3.62L728.23,362.3z"/>
	<path class="st35" d="M815.22,347.8c0,0,8.16,0.91,9.97,5.44c1.81,4.53-2.37,13.15-2.37,13.15l-11.22-15.86L815.22,347.8z"/>
	<path class="st37" d="M823.83,381.03c0,0,4.08-0.61,4.98-4.23s-1.81-4.53-1.81-4.53s1.81-0.91,1.81-4.53s-4.62-4.74-4.62-4.74
		l-2.63,5.65L823.83,381.03z"/>
	<path class="st38" d="M731.4,371.81c0,0,79.29,21.29,84.27,19.94c4.98-1.36,8.16-3.62,8.16-11.78c0-8.16,0-15.4-5.44-24.47
		c-5.44-9.06-13.59-16.31-19.03-19.03c-5.44-2.72-20.84-7.25-27.18-5.44s-15.4,5.44-19.03,8.16c-3.62,2.72-10.87,14.5-10.87,14.5
		l-2.72,9.97c0,0-1.81,4.53-5.44,2.72s-4.53-4.53-5.44-4.53s-0.91,1.81-0.91,1.81S727.78,370,731.4,371.81z"/>
	<g id="leftEye">
		<ellipse cx="764.25" cy="355.96" rx="4.3" ry="4.08"/>
		<circle class="st39" cx="763.12" cy="353.69" r="0.91"/>
	</g>
	<g id="right_Eye">
		<ellipse cx="804.12" cy="365.92" rx="4.3" ry="4.08"/>
		<circle class="st39" cx="802.99" cy="363.66" r="0.91"/>
	</g>
	<path id="smile" class="st40" d="M778.52,360.03c0,0,4.53,7.25,10.87,2.72"/>
	<circle class="st41" cx="811.6" cy="382.23" r="1.36"/>
	<circle class="st41" cx="813.41" cy="374.99" r="1.36"/>
	<circle class="st41" cx="757.23" cy="365.92" r="1.36"/>
	<circle class="st41" cx="752.7" cy="369.55" r="1.36"/>
	<circle class="st41" cx="816.13" cy="379.52" r="1.36"/>
	<circle class="st41" cx="808.43" cy="378.49" r="1.36"/>
	<circle class="st41" cx="753.61" cy="361.39" r="1.36"/>
	<circle class="st41" cx="749.07" cy="364.11" r="1.36"/>
</g>
</svg>
