<svg xmlns="http://www.w3.org/2000/svg" viewBox="0 0 44 55"><defs><style>.cls-1{fill:#fff;}.cls-1,.cls-2{stroke:red;stroke-miterlimit:10;}.cls-2{fill:none;}</style></defs><title>Additional Discount</title><g id="Layer_2" data-name="Layer 2"><g id="Layer_1-2" data-name="Layer 1"><g id="Additional_Discounts" data-name="Additional Discounts"><rect class="cls-1" x="9.5" y="0.5" width="34" height="45"/><rect class="cls-1" x="0.5" y="9.5" width="34" height="45"/><line class="cls-2" x1="9.5" y1="0.5" x2="34.5" y2="9.5"/><line class="cls-2" x1="6.5" y1="46.5" x2="29.5" y2="46.5"/><line class="cls-2" x1="8.5" y1="49.5" x2="23.5" y2="49.5"/><line class="cls-2" x1="24" y1="49.5" x2="26" y2="49.5"/><rect class="cls-2" x="12.5" y="24.5" width="11" height="19" rx="1.5"/><path class="cls-2" d="M17.5,12.5h1a1,1,0,0,1,1,1v11a0,0,0,0,1,0,0h-3a0,0,0,0,1,0,0v-11A1,1,0,0,1,17.5,12.5Z"/><line class="cls-2" x1="16.5" y1="15.5" x2="19.5" y2="15.5"/><line class="cls-2" x1="12.5" y1="28.5" x2="23.5" y2="28.5"/><line class="cls-2" x1="12.5" y1="34.5" x2="23.5" y2="34.5"/><line class="cls-2" x1="15.5" y1="37.5" x2="20.5" y2="37.5"/><line class="cls-2" x1="16.5" y1="40.5" x2="19.5" y2="40.5"/></g></g></g></svg>