<svg xmlns="http://www.w3.org/2000/svg" viewBox="0 0 60 55.4"><defs><style>.cls-1{fill:none;stroke:red;stroke-miterlimit:10;}</style></defs><title>Faster Delivery</title><g id="Layer_2" data-name="Layer 2"><g id="Layer_1-2" data-name="Layer 1"><g id="Faster_Delivery" data-name="Faster Delivery"><path class="cls-1" d="M44.5,43.9h-10s0-11-14-11-15,11-15,11v4h54v-10c0-1.89-1.3-2.39-2-3-1.89-1.65-4.81-.89-7-6-3-7-1-11-1-11s1-2,5-2v9s-6-1-6-6h-9v4h5v25"/><path class="cls-1" d="M54.53,33.15c-3.66.77-6,2.91-6,6.75"/><path class="cls-1" d="M30.5,47.9s1-11-10-11S10,47.9,10,47.9Z"/><polyline class="cls-1" points="8.77 37.19 0.5 37.19 0.5 11.9 35.5 11.9 35.5 32.9 0.5 32.9"/><line class="cls-1" x1="44.5" y1="18.9" x2="44.5" y2="22.9"/><line class="cls-1" x1="48.5" y1="42.9" x2="48.5" y2="43.9"/><path class="cls-1" d="M14.5,4.9s11-2,11,4"/><path class="cls-1" d="M4.5.9c1.77-.27,29.9-2.59,26,8"/><line class="cls-1" x1="0.5" y1="0.9" x2="1.5" y2="0.9"/><line class="cls-1" x1="6.5" y1="4.9" x2="7.5" y2="4.9"/><line class="cls-1" x1="10.5" y1="4.9" x2="12.5" y2="4.9"/><path class="cls-1" d="M8.5,28.9s-1-11,10-11,10,11,10,11h0"/><path class="cls-1" d="M13.5,24.9s1-3,4-3"/><line class="cls-1" x1="18.5" y1="17.9" x2="18.5" y2="15.9"/><line class="cls-1" x1="34.5" y1="43.9" x2="34.5" y2="47.9"/><path class="cls-1" d="M16.94,47.9a3.69,3.69,0,0,0,3.56,3,2.94,2.94,0,0,0,3-3Z"/><path class="cls-1" d="M13.5,47.9c0,7,7,7,7,7a11.22,11.22,0,0,0,4-1c1.87-1,3.16-2.86,3.16-6Z"/><path class="cls-1" d="M47.94,47.9a3.69,3.69,0,0,0,3.56,3,2.94,2.94,0,0,0,3-3Z"/><path class="cls-1" d="M44.5,47.9c0,7,7,7,7,7a11.22,11.22,0,0,0,4-1c1.87-1,3.16-2.86,3.16-6Z"/></g></g></g></svg>