<svg xmlns="http://www.w3.org/2000/svg" viewBox="0 0 54 54"><defs><style>.cls-1{fill:none;}.cls-1,.cls-2{stroke:red;stroke-miterlimit:10;}.cls-2{fill:#fff;}</style></defs><title>Total Bill</title><g id="Layer_2" data-name="Layer 2"><g id="Layer_1-2" data-name="Layer 1"><g id="Total_Bill" data-name="Total Bill"><rect class="cls-1" x="0.5" y="0.5" width="41" height="53"/><circle class="cls-2" cx="42" cy="42" r="11.5"/><rect class="cls-1" x="5.5" y="7.5" width="6" height="6"/><rect class="cls-1" x="5.5" y="25.5" width="6" height="6"/><rect class="cls-1" x="5.5" y="15.5" width="6" height="6"/><rect class="cls-1" x="5.5" y="33.5" width="6" height="6"/><rect class="cls-1" x="5.5" y="42.5" width="6" height="6"/><line class="cls-1" x1="5.5" y1="39.5" x2="13.5" y2="32.5"/><line class="cls-1" x1="14" y1="8.5" x2="36" y2="8.5"/><line class="cls-1" x1="14" y1="11.5" x2="36" y2="11.5"/><line class="cls-1" x1="14" y1="17.5" x2="36" y2="17.5"/><line class="cls-1" x1="14" y1="20.5" x2="36" y2="20.5"/><line class="cls-1" x1="14" y1="26.5" x2="36" y2="26.5"/><line class="cls-1" x1="14" y1="29.5" x2="36" y2="29.5"/><line class="cls-1" x1="14.5" y1="35.5" x2="32.5" y2="35.5"/><line class="cls-1" x1="14.5" y1="38.5" x2="30.5" y2="38.5"/><line class="cls-1" x1="14.5" y1="43.5" x2="30.5" y2="43.5"/><line class="cls-1" x1="14.5" y1="47.5" x2="31.5" y2="47.5"/><line class="cls-1" x1="45.5" y1="36.5" x2="38.5" y2="48.5"/><circle class="cls-1" cx="38.5" cy="39.5" r="2"/><circle class="cls-1" cx="46.5" cy="44.5" r="2"/></g></g></g></svg>